<?xml version="1.0" encoding="utf-8"?>
<!-- Vinyl Record icon by Arthur Shlain from Usefulicons.com -->
<svg xmlns="http://www.w3.org/2000/svg" xmlns:xlink="http://www.w3.org/1999/xlink" xml:space="preserve" version="1.1" x="0px" y="0px" viewBox="0 0 100 100" width="400px" height="400px"><path d="M50,10C27.909,10,10,27.909,10,50C10,72.091,27.909,90,50,90S90,72.091,90,50C90,27.909,72.091,10,50,10ZM50,65C41.716,65,35,58.284,35,50C35,41.716,41.716,35,50,35S65,41.716,65,50C65,58.284,58.284,65,50,65Z" stroke="none"></path><path d="M47.5,50C47.5,48.619,48.619,47.5,50,47.5C51.381,47.5,52.5,48.619,52.5,50C52.5,51.381,51.381,52.5,50,52.5C48.619,52.5,47.5,51.381,47.5,50Z" stroke="none"></path></svg>